<svg width="1124" height="100" viewBox="0 0 1124 254" fill="none" xmlns="http://www.w3.org/2000/svg" preserveAspectRatio="none">
<path fill-rule="evenodd" clip-rule="evenodd" d="M0 12.1249L18.75 19.4999C37.5 58.8749 72.5 39.1249 112.5 68.3749C150 79.6249 184 81.4999 232.5 47.4999C270 2.49994 296.5 23.3749 333.5 26.4999C371 43.3749 412.5 58.9999 450 81.4999C487.5 104 525 96.4999 562.5 62.7499C600 28.9999 637.5 -4.75006 675 0.874937C712.5 6.49994 750 62.7499 787.5 68.3749C825 73.9999 862.5 28.9999 900 34.6249C937.5 40.2499 975 62.7499 1012.5 62.7499C1050 62.7499 1087.5 62.7499 1106.25 34.6249L1125 12.1249V254H1106.25C1087.5 254 1050 254 1012.5 254C975 254 937.5 254 900 254C862.5 254 825 254 787.5 254C750 254 712.5 254 675 254C637.5 254 600 254 562.5 254C525 254 487.5 254 450 254C412.5 254 375 254 337.5 254C300 254 262.5 254 225 254C187.5 254 150 254 112.5 254C75 254 37.5 254 18.75 254H0V12.1249Z" fill="#DBFDFF"/>
</svg>
