<svg width="1124" height="70" viewBox="0 0 1124 163" fill="none" xmlns="http://www.w3.org/2000/svg" preserveAspectRatio="none">
<path preserveAspectRatio="none" fill-rule="evenodd" clip-rule="evenodd" d="M0 163L20.6067 139.714C41.2133 116.429 83.3633 69.8571 124.577 69.8571C166.727 69.8571 207.94 116.429 250.09 116.429C291.303 116.429 333.453 69.8571 374.667 46.5714C415.88 23.2857 458.03 23.2857 499.243 23.2857C541.393 23.2857 582.607 23.2857 624.757 31.0476C665.97 38.8095 708.12 54.3333 749.333 73.7381C790.547 93.1429 832.697 116.429 873.91 116.429C916.06 116.429 957.273 93.1429 999.423 77.619C1040.64 62.0952 1082.79 54.3333 1103.39 50.4524L1124 46.5714V0H1103.39C1082.79 0 1040.64 0 999.423 0C957.273 0 916.06 0 873.91 0C832.697 0 790.547 0 749.333 0C708.12 0 665.97 0 624.757 0C582.607 0 541.393 0 499.243 0C458.03 0 415.88 0 374.667 0C333.453 0 291.303 0 250.09 0C207.94 0 166.727 0 124.577 0C83.3633 0 41.2133 0 20.6067 0H0V163Z" fill="url(#paint0_linear_41_213)"/>
<defs>
<linearGradient id="paint0_linear_41_213" x1="562" y1="0" x2="562" y2="163" gradientUnits="userSpaceOnUse">
<stop stop-color="#DBFDFF"/>
<stop offset="1" stop-color="#F7CDF2" stop-opacity="0"/>
</linearGradient>
</defs>
</svg>
