<svg width="256" height="128" viewBox="0 0 256 128" fill="none" xmlns="http://www.w3.org/2000/svg">
<path d="M43.913 86.3342C43.6646 85.5741 43.3372 84.893 42.9308 84.2909C42.5319 83.6813 42.054 83.162 41.4971 82.733C40.9477 82.3041 40.323 81.9767 39.6231 81.7509C38.9232 81.5251 38.1555 81.4122 37.3202 81.4122C35.9504 81.4122 34.7049 81.7659 33.5835 82.4734C32.4621 83.1808 31.5703 84.2232 30.908 85.6005C30.2457 86.9777 29.9145 88.6673 29.9145 90.6692C29.9145 92.6712 30.2494 94.3608 30.9193 95.738C31.5891 97.1153 32.496 98.1577 33.6399 98.8651C34.7839 99.5726 36.0708 99.9263 37.5008 99.9263C38.8254 99.9263 39.9919 99.6441 41.0004 99.0796C42.0164 98.5076 42.8066 97.7023 43.3711 96.6637C43.9431 95.6176 44.2291 94.3871 44.2291 92.9722L45.087 93.1528H38.133V90.6692H46.9384V93.1528C46.9384 95.0569 46.532 96.7127 45.7192 98.12C44.9139 99.5274 43.8001 100.619 42.3777 101.394C40.9628 102.162 39.3371 102.545 37.5008 102.545C35.4537 102.545 33.655 102.064 32.1046 101.1C30.5618 100.137 29.3576 98.7673 28.4921 96.9911C27.6341 95.215 27.2052 93.1077 27.2052 90.6692C27.2052 88.8404 27.4498 87.196 27.9389 85.7359C28.4357 84.2683 29.1356 83.019 30.0387 81.988C30.9418 80.9569 32.0105 80.1667 33.2448 79.6173C34.4791 79.0679 35.8375 78.7932 37.3202 78.7932C38.5394 78.7932 39.6758 78.9775 40.7295 79.3463C41.7906 79.7076 42.7351 80.2231 43.563 80.8929C44.3984 81.5552 45.0946 82.3492 45.6515 83.2749C46.2084 84.1931 46.5922 85.2129 46.803 86.3342H43.913ZM66.906 79.1092H69.7057V94.4172C69.7057 95.9977 69.3331 97.4088 68.588 98.6506C67.8505 99.8849 66.8081 100.86 65.461 101.574C64.1138 102.282 62.5333 102.636 60.7196 102.636C58.9058 102.636 57.3253 102.282 55.9782 101.574C54.631 100.86 53.5849 99.8849 52.8398 98.6506C52.1022 97.4088 51.7335 95.9977 51.7335 94.4172V79.1092H54.5332V94.1914C54.5332 95.3203 54.7815 96.3251 55.2782 97.2056C55.775 98.0786 56.4824 98.7673 57.4006 99.2715C58.3263 99.7682 59.4326 100.017 60.7196 100.017C62.0065 100.017 63.1128 99.7682 64.0385 99.2715C64.9643 98.7673 65.6717 98.0786 66.1609 97.2056C66.6576 96.3251 66.906 95.3203 66.906 94.1914V79.1092ZM75.2966 79.1092H78.6381L86.4953 98.3007H86.7663L94.6234 79.1092H97.965V102.229H95.3459V84.6635H95.1202L87.8952 102.229H85.3664L78.1414 84.6635H77.9156V102.229H75.2966V79.1092ZM112.519 102.229V79.1092H115.319V89.4049H127.647V79.1092H130.446V102.229H127.647V91.8885H115.319V102.229H112.519ZM155.559 90.6692C155.559 93.1077 155.119 95.215 154.238 96.9911C153.358 98.7673 152.15 100.137 150.614 101.1C149.079 102.064 147.325 102.545 145.354 102.545C143.382 102.545 141.628 102.064 140.093 101.1C138.558 100.137 137.35 98.7673 136.469 96.9911C135.589 95.215 135.148 93.1077 135.148 90.6692C135.148 88.2308 135.589 86.1235 136.469 84.3474C137.35 82.5712 138.558 81.2015 140.093 80.2382C141.628 79.2748 143.382 78.7932 145.354 78.7932C147.325 78.7932 149.079 79.2748 150.614 80.2382C152.15 81.2015 153.358 82.5712 154.238 84.3474C155.119 86.1235 155.559 88.2308 155.559 90.6692ZM152.85 90.6692C152.85 88.6673 152.515 86.9777 151.845 85.6005C151.183 84.2232 150.283 83.1808 149.147 82.4734C148.018 81.7659 146.754 81.4122 145.354 81.4122C143.954 81.4122 142.686 81.7659 141.549 82.4734C140.42 83.1808 139.521 84.2232 138.851 85.6005C138.189 86.9777 137.858 88.6673 137.858 90.6692C137.858 92.6712 138.189 94.3608 138.851 95.738C139.521 97.1153 140.42 98.1577 141.549 98.8651C142.686 99.5726 143.954 99.9263 145.354 99.9263C146.754 99.9263 148.018 99.5726 149.147 98.8651C150.283 98.1577 151.183 97.1153 151.845 95.738C152.515 94.3608 152.85 92.6712 152.85 90.6692ZM175.439 79.1092H178.239V94.4172C178.239 95.9977 177.866 97.4088 177.121 98.6506C176.384 99.8849 175.341 100.86 173.994 101.574C172.647 102.282 171.066 102.636 169.253 102.636C167.439 102.636 165.858 102.282 164.511 101.574C163.164 100.86 162.118 99.8849 161.373 98.6506C160.635 97.4088 160.267 95.9977 160.267 94.4172V79.1092H163.066V94.1914C163.066 95.3203 163.315 96.3251 163.811 97.2056C164.308 98.0786 165.015 98.7673 165.934 99.2715C166.859 99.7682 167.966 100.017 169.253 100.017C170.54 100.017 171.646 99.7682 172.572 99.2715C173.497 98.7673 174.205 98.0786 174.694 97.2056C175.191 96.3251 175.439 95.3203 175.439 94.1914V79.1092ZM196.473 84.8892C196.338 83.7453 195.788 82.8572 194.825 82.225C193.862 81.5928 192.68 81.2767 191.28 81.2767C190.257 81.2767 189.361 81.4423 188.594 81.7735C187.833 82.1046 187.239 82.5599 186.81 83.1394C186.388 83.7189 186.178 84.3775 186.178 85.115C186.178 85.7322 186.324 86.2627 186.618 86.7068C186.919 87.1433 187.303 87.5083 187.769 87.8018C188.236 88.0878 188.725 88.3249 189.237 88.513C189.749 88.6937 190.219 88.8404 190.648 88.9533L192.996 89.5855C193.598 89.7435 194.268 89.9618 195.006 90.2403C195.751 90.5187 196.462 90.8988 197.139 91.3805C197.824 91.8546 198.389 92.4642 198.833 93.2093C199.277 93.9544 199.499 94.8688 199.499 95.9525C199.499 97.2019 199.171 98.3308 198.517 99.3392C197.869 100.348 196.921 101.149 195.672 101.744C194.43 102.338 192.921 102.636 191.145 102.636C189.489 102.636 188.055 102.368 186.844 101.834C185.64 101.3 184.691 100.555 183.999 99.5989C183.314 98.6431 182.926 97.533 182.836 96.2686H185.726C185.801 97.1416 186.095 97.8641 186.607 98.4361C187.126 99.0006 187.781 99.422 188.571 99.7005C189.369 99.9714 190.227 100.107 191.145 100.107C192.214 100.107 193.173 99.9338 194.024 99.5876C194.874 99.2339 195.548 98.7447 196.044 98.12C196.541 97.4878 196.789 96.7503 196.789 95.9074C196.789 95.1397 196.575 94.5151 196.146 94.0334C195.717 93.5517 195.153 93.1604 194.453 92.8593C193.753 92.5583 192.996 92.2949 192.184 92.0691L189.339 91.2563C187.532 90.737 186.102 89.9957 185.049 89.0323C183.995 88.069 183.468 86.8084 183.468 85.2505C183.468 83.956 183.818 82.8271 184.518 81.8638C185.226 80.8929 186.174 80.1403 187.363 79.606C188.56 79.0641 189.896 78.7932 191.371 78.7932C192.861 78.7932 194.185 79.0603 195.344 79.5947C196.503 80.1215 197.422 80.844 198.099 81.7622C198.784 82.6804 199.145 83.7227 199.183 84.8892H196.473ZM204.102 102.229V79.1092H218.055V81.5928H206.902V89.4049H217.333V91.8885H206.902V99.7457H218.236V102.229H204.102Z" fill="#36A5C9"/>
<path d="M234.935 113.033H21.0645V119.735H234.935V113.033Z" fill="#36A5C9"/>
<path d="M103.357 63.748H21.0645V67.578H103.357V63.748Z" fill="#36A5C9"/>
<path d="M234.935 63.748H152.743V67.578H234.935V63.748Z" fill="#36A5C9"/>
<path d="M124.674 41.8268V63.748V67.578V70.5008H131.477V67.578V63.748V41.8268C137.776 40.5669 142.765 35.7795 144.428 29.6315H147.301V20.7622H144.428C142.463 13.5559 135.912 8.26456 128.05 8.26456C120.239 8.26456 113.638 13.5559 111.672 20.7622H108.85V29.6315H111.723C113.386 35.7795 118.375 40.5669 124.674 41.8268ZM129.915 63.748V67.578V69.2913H126.236V67.578V63.748V42.0283H129.915V63.748ZM128.05 40.5669C121.096 40.5669 115.2 35.9811 113.285 29.6315H142.816C140.901 35.9811 135.005 40.5669 128.05 40.5669ZM128.05 9.72597C135.055 9.72597 140.951 14.3622 142.816 20.7622H113.235C115.15 14.4126 121.096 9.72597 128.05 9.72597ZM110.362 22.022H145.638V28.2709H110.362V22.022Z" fill="#36A5C9"/>
</svg>
